<svg xmlns="http://www.w3.org/2000/svg" width="300" height="500" viewBox="0 0 300 500" fill="none">
  <!-- Grupo de frutas e vegetais -->
  <g fill="#2563EB">
    <!-- Maçã -->
    <path d="M50,40 C60,20 90,20 100,40 L90,45 C95,48 95,55 90,60 C85,65 75,65 70,60 C65,55 65,48 70,45 L60,40 C55,30 85,30 80,40 Z"/>
    <path d="M75,40 L78,25 L82,25 L85,40 Z"/>
    
    <!-- Brócolis -->
    <path d="M150,30 C165,10 180,15 180,30 C195,20 210,25 200,40 C215,40 215,55 200,60 C210,75 195,80 180,70 C180,85 165,85 150,70 C135,85 120,85 120,70 C105,80 90,75 100,60 C85,55 85,40 100,40 C90,25 105,20 120,30 C120,15 135,10 150,30 Z"/>
    
    <!-- Cenoura -->
    <path d="M240,30 C250,30 260,40 260,50 L240,90 L220,50 C220,40 230,30 240,30 Z"/>
    <path d="M240,15 C235,15 230,20 230,25 C230,30 235,35 240,35 C245,35 250,30 250,25 C250,20 245,15 240,15 Z"/>
    
    <!-- Banana -->
    <path d="M70,120 C50,110 45,130 60,140 C75,150 90,140 85,125 L60,110 C55,100 75,100 80,110 L105,125 C115,140 95,160 70,145 C45,130 45,100 70,120 Z"/>
    
    <!-- Folha -->
    <path d="M180,120 C200,100 230,110 230,140 C230,170 200,180 180,160 L180,120 Z"/>
    <path d="M180,120 L165,105 M180,130 L160,120 M180,140 L165,135 M180,150 L170,150"/>
    
    <!-- Laranja -->
    <path d="M240,140 C265,140 265,165 240,165 C215,165 215,140 240,140 Z"/>
    <path d="M240,130 L243,115 M237,115 L240,130"/>
    <path d="M240,140 L240,165 M230,145 L250,160 M230,160 L250,145"/>
    
    <!-- Pera -->
    <path d="M60,220 C65,210 75,210 80,220 C90,215 100,225 90,235 C95,255 65,255 70,235 C60,225 70,215 80,220 Z"/>
    <path d="M70,210 L73,195 L77,195 L80,210 Z"/>
    
    <!-- Pimentão -->
    <path d="M160,200 C175,200 185,210 180,220 C175,230 165,260 160,260 C155,260 145,230 140,220 C135,210 145,200 160,200 Z"/>
    <path d="M160,200 L160,190 C160,185 165,185 165,190 L165,200"/>
    
    <!-- Uva -->
    <path d="M240,200 C250,200 250,210 240,210 C230,210 230,200 240,200 Z"/>
    <path d="M225,215 C235,215 235,225 225,225 C215,225 215,215 225,215 Z"/>
    <path d="M245,220 C255,220 255,230 245,230 C235,230 235,220 245,220 Z"/>
    <path d="M230,240 C240,240 240,250 230,250 C220,250 220,240 230,240 Z"/>
    <path d="M250,240 C260,240 260,250 250,250 C240,250 240,240 250,240 Z"/>
    <path d="M240,200 L240,195 L235,190 L230,180"/>
  </g>
</svg>